<?xml version="1.0" encoding="utf-8"?>
<svg xmlns="http://www.w3.org/2000/svg" viewBox="0 0 344.11 93.67"><defs><style>.cls-1{fill:none;}.cls-2{fill:#fff;}.cls-3{opacity:0.6;}</style></defs><title>logo horizontal_1</title><g id="Camada_2" data-name="Camada 2"><g id="Art"><rect class="cls-1" width="344.11" height="93.67"/><path class="cls-2" d="M326,38.69a2.24,2.24,0,0,1-1.62-.67,2.71,2.71,0,0,1,0-3.57,2.25,2.25,0,0,1,3.24,0,2.68,2.68,0,0,1,0,3.57A2.24,2.24,0,0,1,326,38.69Zm0-.33a1.83,1.83,0,0,0,1.38-.6,2.16,2.16,0,0,0,.56-1.52,2.2,2.2,0,0,0-.56-1.53,1.83,1.83,0,0,0-2.75,0,2.16,2.16,0,0,0-.57,1.53,2.12,2.12,0,0,0,.57,1.52A1.83,1.83,0,0,0,326,38.36Zm-.84-.85V34.86H326a1.42,1.42,0,0,1,.67.17.67.67,0,0,1,.3.65.77.77,0,0,1-.15.46.63.63,0,0,1-.36.25l.64,1.12h-.43l-.51-1h-.64v1Zm.36-1.32h.38c.46,0,.69-.16.69-.49a.53.53,0,0,0-.14-.37.71.71,0,0,0-.5-.14h-.43Z"/><path class="cls-2" d="M114.73,37.06c6.56,0,10.89,4,10.89,9.94s-4.33,9.93-10.89,9.93h-7.86V37.06Zm-.18,15.63c3.71,0,6.15-2.25,6.15-5.69s-2.44-5.7-6.15-5.7h-2.78V52.69Z"/><path class="cls-2" d="M143.43,50.7H132.52a3.43,3.43,0,0,0,6.37,1.16l4.22.86c-1.28,3.14-4,4.66-7.39,4.66a7.89,7.89,0,0,1,0-15.78c4.21,0,7.59,3,7.68,7.89Zm-10.82-2.9h6.14a3,3,0,0,0-3-2.35A3.25,3.25,0,0,0,132.61,47.8Z"/><path class="cls-2" d="M183.46,47.8v9.13h-4.72V48.8c0-1.75-1-2.93-2.55-2.93-1.87,0-3.09,1.27-3.09,4.15v6.91h-4.74V42h4.74v1.43a6.13,6.13,0,0,1,4.57-1.87C181.14,41.6,183.46,44.06,183.46,47.8Z"/><path class="cls-2" d="M201.74,50.7H190.83a3.28,3.28,0,0,0,3.2,2.88,3.33,3.33,0,0,0,3.18-1.72l4.21.86c-1.28,3.14-4,4.66-7.39,4.66a7.89,7.89,0,0,1,0-15.78c4.21,0,7.6,3,7.68,7.89Zm-10.82-2.9h6.14a3,3,0,0,0-3-2.35A3.25,3.25,0,0,0,190.92,47.8Z"/><path class="cls-2" d="M221,56.93h-4.74V55.75a6.75,6.75,0,0,1-4.63,1.63c-4,0-7.27-3.18-7.27-7.89s3.32-7.89,7.27-7.89a6.71,6.71,0,0,1,4.63,1.63V34.09H221Zm-4.74-7.44a3.71,3.71,0,0,0-3.65-3.86A3.58,3.58,0,0,0,209,49.49a3.56,3.56,0,0,0,3.59,3.85A3.69,3.69,0,0,0,216.25,49.49Z"/><path class="cls-2" d="M245,49.49c-.92,5-4.92,7.89-10,7.89a10.39,10.39,0,1,1,0-20.77c4.9,0,9,2.91,10,7.63l-4.81,1.12A5,5,0,0,0,235,41.09a5.93,5.93,0,0,0,0,11.84,5.13,5.13,0,0,0,5.22-4.39Z"/><path class="cls-2" d="M259.41,42l-.21,4.75h-.86c-3.32,0-5.13,1.72-5.13,5.58v4.65h-4.75V42h4.75v2.85a5.73,5.73,0,0,1,5.13-3.06A4.08,4.08,0,0,1,259.41,42Z"/><path class="cls-2" d="M277.44,49.49a7.84,7.84,0,0,1-8.16,7.86c-4.51,0-8.24-3.15-8.24-7.86s3.73-7.83,8.24-7.83S277.44,44.8,277.44,49.49Zm-4.57,0a3.64,3.64,0,1,0-3.59,3.85A3.7,3.7,0,0,0,272.87,49.49Z"/><path class="cls-2" d="M297.14,57H293l-2.67-8.07L287.64,57h-4.12L278.75,42h4.65l2.43,8,2.82-8H292l2.82,8,2.43-8h4.66Z"/><path class="cls-2" d="M319.86,56.93h-4.75V55.75a6.75,6.75,0,0,1-4.63,1.63c-3.94,0-7.26-3.18-7.26-7.89s3.32-7.89,7.26-7.89a6.71,6.71,0,0,1,4.63,1.63V34.09h4.75Zm-4.75-7.44a3.71,3.71,0,0,0-3.65-3.86,3.59,3.59,0,0,0-3.59,3.86,3.57,3.57,0,0,0,3.59,3.85A3.69,3.69,0,0,0,315.11,49.49Z"/><path class="cls-2" d="M161.94,40.29a2.62,2.62,0,0,0,2.73-2.64,2.75,2.75,0,0,0-5.49,0A2.61,2.61,0,0,0,161.94,40.29Z"/><polygon class="cls-2" points="159.34 45.81 159.34 49.16 159.34 56.93 164.09 56.93 164.09 42.04 159.34 42.04 159.34 45.81"/><path class="cls-2" d="M156.22,42h-4.05V39.61a1.79,1.79,0,0,1,2-1.87,5.93,5.93,0,0,1,1.19.18l.86-3.74a7.56,7.56,0,0,0-2.7-.5c-3.65,0-6.05,2.22-6.05,5.72V42h-2.14v3.77h2.14V56.93h4.72V45.81h4.05Z"/><path class="cls-2" d="M94.47,31.13l-5.32,5.32-.4.4-.4-.4a14.69,14.69,0,0,0-20.77,0,13,13,0,0,0-3.18,4.71c-1.05,3-.82,4.53-1.21,8.34a21.39,21.39,0,0,1-3.74,10.24A23.32,23.32,0,0,1,40,70.18H24.47V61.46l7.9.06H40A14.68,14.68,0,0,0,54.64,47.91c.45-4.49.2-8.34,3.86-14a23.35,23.35,0,0,1,36-3.6l.4.4Z"/><g class="cls-3"><path class="cls-2" d="M60.86,60.68a24.2,24.2,0,0,0,3.58-8.1l0,.07a14.69,14.69,0,0,0,23.8,4.64l.4-.39.4.4,5.32,5.32.41.4-.41.4a23.34,23.34,0,0,1-34.33-1.61C60.34,61.44,60.61,61.07,60.86,60.68Z"/></g><g class="cls-3"><path class="cls-2" d="M57.08,33a24.47,24.47,0,0,0-3.49,8.25l-.1-.24A14.72,14.72,0,0,0,40,32.15H24.47V23.49H40a23.25,23.25,0,0,1,17.9,8.36C57.61,32.23,57.34,32.61,57.08,33Z"/></g></g></g></svg>